<svg width="107" height="20" viewBox="0 0 107 20" fill="none" xmlns="http://www.w3.org/2000/svg">
<path d="M0.000277667 19.2812V0.325249H5.82248C8.02498 0.325249 9.84837 0.713396 11.2926 1.48969C12.7369 2.26598 13.8021 3.36724 14.4881 4.79345C15.1922 6.20161 15.5442 7.88057 15.5442 9.83033C15.5442 11.7801 15.1922 13.459 14.4881 14.8672C13.8021 16.2754 12.7369 17.3676 11.2926 18.1439C9.86642 18.9021 8.04304 19.2812 5.82248 19.2812H0.000277667ZM2.70828 17.0065H5.71416C7.46533 17.0065 8.85544 16.7177 9.88448 16.14C10.9135 15.5623 11.6447 14.7408 12.078 13.6757C12.5293 12.5925 12.755 11.3107 12.755 9.83033C12.755 8.3319 12.5293 7.04109 12.078 5.95789C11.6447 4.87469 10.9135 4.04424 9.88448 3.46653C8.85544 2.88882 7.46533 2.59997 5.71416 2.59997H2.70828V17.0065ZM18.8029 19.2812V0.325249H21.9983L28.4163 13.1341L34.8072 0.325249H38.0297V19.2812H35.3217V5.06425L29.4453 16.6274H27.3602L21.5109 5.09133V19.2812H18.8029ZM55.099 19.6062C53.7089 19.6062 52.4903 19.3625 51.4432 18.875C50.3961 18.3696 49.5837 17.6655 49.006 16.7628C48.4283 15.8601 48.1394 14.804 48.1394 13.5944H50.9828C51.0009 14.2805 51.1634 14.9123 51.4703 15.49C51.7952 16.0497 52.2556 16.501 52.8513 16.844C53.4652 17.169 54.2144 17.3315 55.099 17.3315C55.8572 17.3315 56.5071 17.2051 57.0487 16.9524C57.6084 16.6996 58.0326 16.3566 58.3215 15.9233C58.6104 15.472 58.7548 14.9575 58.7548 14.3798C58.7548 13.7118 58.6013 13.1612 58.2944 12.7279C57.9875 12.2946 57.5723 11.9426 57.0487 11.6718C56.5432 11.3829 55.9475 11.1302 55.2615 10.9135C54.5935 10.6969 53.8894 10.4622 53.1492 10.2094C51.6508 9.72201 50.5315 9.09014 49.7913 8.31385C49.0692 7.53756 48.7081 6.52657 48.7081 5.28089C48.7081 4.21574 48.9608 3.29502 49.4663 2.51873C49.9718 1.72438 50.6759 1.11057 51.5786 0.677289C52.4993 0.225956 53.5825 0.000289719 54.8282 0.000289719C56.0558 0.000289719 57.13 0.225956 58.0507 0.677289C58.9714 1.12862 59.6936 1.75146 60.2171 2.54581C60.7406 3.34016 61.0024 4.2699 61.0024 5.33505H58.1319C58.1319 4.84761 58.0056 4.3692 57.7528 3.89981C57.5001 3.43042 57.121 3.0513 56.6155 2.76245C56.11 2.45554 55.4871 2.30209 54.7469 2.30209C54.1331 2.28404 53.5825 2.38333 53.0951 2.59997C52.6076 2.81661 52.2285 3.13254 51.9577 3.54777C51.6869 3.963 51.5515 4.45946 51.5515 5.03717C51.5515 5.61488 51.6688 6.08426 51.9035 6.44533C52.1563 6.78834 52.5174 7.08622 52.9867 7.33897C53.4561 7.59172 53.9977 7.82641 54.6115 8.04305C55.2434 8.24164 55.9385 8.4673 56.6967 8.72005C57.6355 9.02696 58.4659 9.40608 59.1881 9.85741C59.9282 10.2907 60.506 10.8594 60.9212 11.5634C61.3545 12.2495 61.5711 13.1341 61.5711 14.2173C61.5711 15.1561 61.3274 16.0316 60.8399 16.844C60.3525 17.6564 59.6304 18.3244 58.6735 18.848C57.7167 19.3535 56.5252 19.6062 55.099 19.6062ZM69.1783 19.6062C68.0589 19.6062 67.1292 19.4166 66.389 19.0375C65.6488 18.6584 65.0982 18.1529 64.7371 17.521C64.3761 16.8711 64.1955 16.1761 64.1955 15.4359C64.1955 14.5332 64.4302 13.766 64.8996 13.1341C65.369 12.4842 66.037 11.9877 66.9035 11.6447C67.7701 11.3017 68.8082 11.1302 70.0177 11.1302H73.5652C73.5652 10.3358 73.4479 9.67688 73.2132 9.15333C72.9785 8.62978 72.6264 8.24164 72.1571 7.98889C71.7057 7.71809 71.128 7.58269 70.4239 7.58269C69.6115 7.58269 68.9165 7.78128 68.3388 8.17845C67.7611 8.55757 67.4 9.12625 67.2556 9.88449H64.5476C64.6559 8.92766 64.9809 8.11526 65.5225 7.44729C66.0821 6.76126 66.7952 6.23772 67.6618 5.87665C68.5283 5.49753 69.4491 5.30797 70.4239 5.30797C71.7057 5.30797 72.7799 5.53364 73.6465 5.98497C74.513 6.4363 75.1629 7.0772 75.5962 7.90765C76.0475 8.72005 76.2732 9.69493 76.2732 10.8323V19.2812H73.9173L73.7006 16.9794C73.502 17.3405 73.2673 17.6835 72.9965 18.0085C72.7257 18.3334 72.4008 18.6133 72.0217 18.848C71.6606 19.0827 71.2363 19.2632 70.7489 19.3896C70.2795 19.534 69.756 19.6062 69.1783 19.6062ZM69.6928 17.4127C70.2705 17.4127 70.794 17.2954 71.2634 17.0607C71.7328 16.826 72.13 16.5101 72.4549 16.1129C72.7979 15.6977 73.0507 15.2373 73.2132 14.7318C73.3937 14.2083 73.493 13.6757 73.5111 13.1341V13.0528H70.2885C69.5122 13.0528 68.8804 13.1521 68.3929 13.3507C67.9235 13.5313 67.5805 13.784 67.3639 14.109C67.1473 14.4339 67.0389 14.813 67.0389 15.2463C67.0389 15.6977 67.1382 16.0858 67.3368 16.4108C67.5535 16.7177 67.8604 16.9614 68.2575 17.1419C68.6547 17.3225 69.1331 17.4127 69.6928 17.4127ZM79.7297 19.2812V5.63293H82.1669L82.3294 7.96181C82.7627 7.14941 83.3765 6.50852 84.1708 6.03913C84.9652 5.55169 85.8769 5.30797 86.9059 5.30797C87.9891 5.30797 88.9189 5.52461 89.6952 5.95789C90.4715 6.39117 91.0762 7.05012 91.5095 7.93473C91.9428 8.80129 92.1594 9.89352 92.1594 11.2114V19.2812H89.4514V11.4822C89.4514 10.2185 89.1716 9.26165 88.612 8.61173C88.0523 7.96181 87.2399 7.63685 86.1748 7.63685C85.4707 7.63685 84.8388 7.80836 84.2792 8.15137C83.7195 8.47633 83.2682 8.96377 82.9252 9.61369C82.6002 10.2636 82.4377 11.058 82.4377 11.9967V19.2812H79.7297ZM100.904 19.6062C99.7485 19.6062 98.7376 19.4166 97.871 19.0375C97.0044 18.6584 96.3184 18.1258 95.8129 17.4398C95.3074 16.7538 95.0005 15.9504 94.8922 15.0297H97.6544C97.7446 15.463 97.9161 15.8601 98.1689 16.2212C98.4397 16.5823 98.8007 16.8711 99.2521 17.0878C99.7215 17.3044 100.272 17.4127 100.904 17.4127C101.5 17.4127 101.987 17.3315 102.366 17.169C102.763 16.9885 103.052 16.7538 103.233 16.4649C103.413 16.158 103.504 15.8331 103.504 15.49C103.504 14.9846 103.377 14.6054 103.125 14.3527C102.89 14.0819 102.529 13.8743 102.041 13.7298C101.572 13.5674 101.003 13.4229 100.335 13.2966C99.7034 13.1882 99.0896 13.0438 98.4938 12.8633C97.9161 12.6647 97.3926 12.421 96.9232 12.1321C96.4719 11.8433 96.1108 11.4822 95.84 11.0489C95.5692 10.5976 95.4338 10.047 95.4338 9.39705C95.4338 8.62076 95.6414 7.9257 96.0566 7.31189C96.4719 6.68002 97.0586 6.19258 97.8168 5.84957C98.5931 5.4885 99.5048 5.30797 100.552 5.30797C102.068 5.30797 103.287 5.66904 104.208 6.39117C105.128 7.1133 105.67 8.13332 105.833 9.45121H103.206C103.134 8.8374 102.863 8.36801 102.393 8.04305C101.924 7.70004 101.301 7.52853 100.525 7.52853C99.7485 7.52853 99.1528 7.68198 98.7376 7.98889C98.3223 8.2958 98.1147 8.702 98.1147 9.20749C98.1147 9.53245 98.2321 9.8213 98.4668 10.074C98.7014 10.3268 99.0445 10.5434 99.4958 10.724C99.9652 10.8864 100.534 11.0399 101.202 11.1843C102.159 11.3649 103.016 11.5905 103.774 11.8613C104.533 12.1321 105.137 12.5293 105.589 13.0528C106.04 13.5764 106.266 14.3256 106.266 15.3005C106.284 16.149 106.067 16.8982 105.616 17.5481C105.183 18.198 104.56 18.7035 103.747 19.0646C102.953 19.4257 102.005 19.6062 100.904 19.6062Z" fill="black"/>
</svg>
