<svg width="62" height="12" viewBox="0 0 62 12" fill="none" xmlns="http://www.w3.org/2000/svg">
<path d="M-0.00312495 11.3916V0.191601H3.32488C4.62621 0.191601 5.70354 0.420934 6.55688 0.879601C7.41021 1.3276 8.03954 1.97293 8.44488 2.8156C8.86088 3.6476 9.06888 4.65027 9.06888 5.8236C9.06888 6.9756 8.86088 7.9676 8.44488 8.7996C8.03954 9.6316 7.41021 10.2716 6.55688 10.7196C5.70354 11.1676 4.62621 11.3916 3.32488 11.3916H-0.00312495ZM1.34088 10.2716H3.29288C4.37021 10.2716 5.22888 10.0956 5.86888 9.7436C6.51954 9.38093 6.98354 8.86893 7.26088 8.2076C7.53821 7.5356 7.67688 6.74093 7.67688 5.8236C7.67688 4.88493 7.53821 4.0796 7.26088 3.4076C6.98354 2.7356 6.51954 2.21827 5.86888 1.8556C5.22888 1.49293 4.37021 1.3116 3.29288 1.3116H1.34088V10.2716ZM11.0438 11.3916V0.191601H12.6118L16.5638 8.0156L20.5318 0.191601H22.1158V11.3916H20.7718V2.5916L17.0758 9.8236H16.0678L12.3878 2.6236V11.3916H11.0438ZM32.3461 11.5836C31.5248 11.5836 30.8101 11.4343 30.2021 11.1356C29.5941 10.8369 29.1248 10.4209 28.7941 9.8876C28.4635 9.35427 28.2981 8.7356 28.2981 8.0316H29.7061C29.7061 8.46893 29.8075 8.87427 30.0101 9.2476C30.2128 9.61027 30.5061 9.9036 30.8901 10.1276C31.2848 10.3409 31.7701 10.4476 32.3461 10.4476C32.8475 10.4476 33.2741 10.3676 33.6261 10.2076C33.9888 10.0369 34.2608 9.8076 34.4421 9.5196C34.6341 9.2316 34.7301 8.90627 34.7301 8.5436C34.7301 8.10627 34.6341 7.75427 34.4421 7.4876C34.2501 7.21027 33.9941 6.98627 33.6741 6.8156C33.3541 6.64493 32.9861 6.4956 32.5701 6.3676C32.1541 6.22893 31.7115 6.0796 31.2421 5.9196C30.3675 5.62093 29.7221 5.25293 29.3061 4.8156C28.8901 4.3676 28.6821 3.78627 28.6821 3.0716C28.6821 2.4636 28.8208 1.93027 29.0981 1.4716C29.3861 1.01293 29.7915 0.655601 30.3141 0.399601C30.8475 0.132935 31.4768 -0.000398636 32.2021 -0.000398636C32.9168 -0.000398636 33.5355 0.132935 34.0581 0.399601C34.5915 0.666267 35.0075 1.03427 35.3061 1.5036C35.6048 1.96227 35.7541 2.4956 35.7541 3.1036H34.3461C34.3461 2.79427 34.2661 2.49027 34.1061 2.1916C33.9461 1.89293 33.7008 1.6476 33.3701 1.4556C33.0501 1.25293 32.6448 1.1516 32.1541 1.1516C31.7488 1.14093 31.3861 1.21027 31.0661 1.3596C30.7568 1.49827 30.5115 1.70093 30.3301 1.9676C30.1595 2.23427 30.0741 2.5596 30.0741 2.9436C30.0741 3.30627 30.1488 3.5996 30.2981 3.8236C30.4581 4.0476 30.6821 4.2396 30.9701 4.3996C31.2688 4.54893 31.6155 4.6876 32.0101 4.8156C32.4048 4.9436 32.8421 5.0876 33.3221 5.2476C33.8661 5.42893 34.3461 5.65293 34.7621 5.9196C35.1888 6.1756 35.5195 6.50627 35.7541 6.9116C35.9995 7.31693 36.1221 7.83427 36.1221 8.4636C36.1221 8.99693 35.9781 9.5036 35.6901 9.9836C35.4128 10.4529 34.9968 10.8369 34.4421 11.1356C33.8875 11.4343 33.1888 11.5836 32.3461 11.5836ZM40.6034 11.5836C39.9527 11.5836 39.4087 11.4716 38.9714 11.2476C38.534 11.0129 38.2087 10.7089 37.9954 10.3356C37.782 9.9516 37.6754 9.5356 37.6754 9.0876C37.6754 8.5436 37.814 8.08493 38.0914 7.7116C38.3794 7.3276 38.7794 7.0396 39.2914 6.8476C39.814 6.64493 40.4274 6.5436 41.1314 6.5436H43.2594C43.2594 6.04227 43.1794 5.62627 43.0194 5.2956C42.87 4.95427 42.646 4.69827 42.3474 4.5276C42.0594 4.35693 41.6967 4.2716 41.2594 4.2716C40.7474 4.2716 40.3047 4.3996 39.9314 4.6556C39.558 4.9116 39.3287 5.29027 39.2434 5.7916H37.8674C37.9314 5.2156 38.1234 4.7356 38.4434 4.3516C38.774 3.95693 39.19 3.65827 39.6914 3.4556C40.1927 3.24227 40.7154 3.1356 41.2594 3.1356C42.006 3.1356 42.6247 3.27427 43.1154 3.5516C43.6167 3.81827 43.99 4.19693 44.2354 4.6876C44.4807 5.1676 44.6034 5.73827 44.6034 6.3996V11.3916H43.4034L43.3234 9.9676C43.2167 10.1916 43.078 10.4049 42.9074 10.6076C42.7474 10.7996 42.5554 10.9703 42.3314 11.1196C42.1074 11.2583 41.8514 11.3703 41.5634 11.4556C41.286 11.5409 40.966 11.5836 40.6034 11.5836ZM40.8114 10.4476C41.1847 10.4476 41.5207 10.3729 41.8194 10.2236C42.1287 10.0636 42.39 9.85027 42.6034 9.5836C42.8167 9.30627 42.9767 9.00227 43.0834 8.6716C43.2007 8.34093 43.2594 7.99427 43.2594 7.6316V7.5836H41.2434C40.7207 7.5836 40.2994 7.6476 39.9794 7.7756C39.6594 7.89293 39.43 8.0636 39.2914 8.2876C39.1527 8.50093 39.0834 8.74627 39.0834 9.0236C39.0834 9.3116 39.1474 9.56227 39.2754 9.7756C39.414 9.98893 39.6114 10.1543 39.8674 10.2716C40.134 10.3889 40.4487 10.4476 40.8114 10.4476ZM46.6825 11.3916V3.3276H47.8985L47.9625 4.7356C48.2185 4.23427 48.5812 3.84493 49.0505 3.5676C49.5305 3.2796 50.0745 3.1356 50.6825 3.1356C51.3118 3.1356 51.8558 3.2636 52.3145 3.5196C52.7732 3.76493 53.1305 4.1436 53.3865 4.6556C53.6425 5.15693 53.7705 5.79693 53.7705 6.5756V11.3916H52.4265V6.7196C52.4265 5.90893 52.2452 5.30093 51.8825 4.8956C51.5305 4.49027 51.0292 4.2876 50.3785 4.2876C49.9305 4.2876 49.5305 4.3996 49.1785 4.6236C48.8265 4.83693 48.5438 5.1516 48.3305 5.5676C48.1278 5.97293 48.0265 6.4796 48.0265 7.0876V11.3916H46.6825ZM58.8944 11.5836C58.2224 11.5836 57.6357 11.4716 57.1344 11.2476C56.6437 11.0236 56.249 10.7143 55.9504 10.3196C55.6624 9.91427 55.4864 9.4396 55.4224 8.8956H56.7984C56.8517 9.17293 56.9637 9.42893 57.1344 9.6636C57.305 9.89827 57.5344 10.0903 57.8224 10.2396C58.121 10.3783 58.4837 10.4476 58.9104 10.4476C59.2837 10.4476 59.593 10.3943 59.8384 10.2876C60.0837 10.1703 60.265 10.0156 60.3824 9.8236C60.5104 9.6316 60.5744 9.4236 60.5744 9.1996C60.5744 8.86893 60.4944 8.61827 60.3344 8.4476C60.185 8.27693 59.961 8.1436 59.6624 8.0476C59.3637 7.94093 59.001 7.85027 58.5744 7.7756C58.2224 7.7116 57.8757 7.62627 57.5344 7.5196C57.193 7.41293 56.889 7.27427 56.6224 7.1036C56.3557 6.92227 56.1424 6.7036 55.9824 6.4476C55.833 6.1916 55.7584 5.87693 55.7584 5.5036C55.7584 5.04493 55.8757 4.6396 56.1104 4.2876C56.345 3.92493 56.681 3.64227 57.1184 3.4396C57.5664 3.23693 58.0837 3.1356 58.6704 3.1356C59.5344 3.1356 60.233 3.3436 60.7664 3.7596C61.2997 4.1756 61.6144 4.77827 61.7104 5.5676H60.3824C60.329 5.16227 60.153 4.8476 59.8544 4.6236C59.5664 4.38893 59.1664 4.2716 58.6544 4.2716C58.153 4.2716 57.769 4.37293 57.5024 4.5756C57.2464 4.77827 57.1184 5.04493 57.1184 5.3756C57.1184 5.58893 57.1877 5.78093 57.3264 5.9516C57.4757 6.1116 57.689 6.25027 57.9664 6.3676C58.2544 6.48493 58.6064 6.58093 59.0224 6.6556C59.5557 6.7516 60.041 6.8796 60.4784 7.0396C60.9157 7.1996 61.2677 7.4396 61.5344 7.7596C61.8117 8.06893 61.9504 8.5116 61.9504 9.0876C61.9504 9.58893 61.8224 10.0263 61.5664 10.3996C61.321 10.7729 60.969 11.0663 60.5104 11.2796C60.0517 11.4823 59.513 11.5836 58.8944 11.5836Z" fill="black"/>
</svg>
