<svg width="231" height="36" viewBox="0 0 231 36" fill="none" xmlns="http://www.w3.org/2000/svg">
<path d="M9.77137 2.98372C12.878 2.98372 14.9219 3.63775 16.3117 4.00565C16.1073 6.62179 15.9029 9.23793 15.8621 12.4264H15.2489L14.6358 9.68758C13.7365 5.80425 11.0794 4.04653 7.85014 4.04653C5.31576 4.04653 3.76242 5.3546 3.76242 7.56197C3.76242 10.3007 5.02962 11.9358 9.93488 13.5709C15.6577 15.4921 17.538 17.3316 17.538 20.5609C17.538 24.6486 13.8591 28.2867 7.19611 28.2867C4.04856 28.2867 1.39155 27.183 0.00172149 26.3655C0.124353 24.0764 0.328739 21.5011 0.369616 18.3944H0.982774L1.51418 20.9288C2.45435 25.0165 5.11137 26.3655 10.6707 26.3655C14.3087 26.3655 15.2489 25.2209 15.2489 23.0953C15.2489 20.5609 13.8182 19.212 7.35962 17.0046C2.29084 15.4104 0.533125 13.2439 0.533125 10.3825C0.533125 6.33565 4.57997 2.98372 9.77137 2.98372ZM33.2959 8.78828C32.3148 8.78828 31.7834 9.1153 31.7834 9.60582C31.7834 10.3007 32.601 11.7314 33.582 13.4892C34.1952 12.0176 34.7675 10.7504 34.7675 9.85109C34.7675 9.1153 34.3178 8.78828 33.2959 8.78828ZM32.928 18.4762C32.7236 18.0674 32.5601 17.6586 32.3557 17.2499C30.8024 20.8471 29.2899 24.5669 27.3687 28.8181H26.7964C25.8153 26.4064 23.8124 21.9916 22.259 18.8032C18.7845 11.4453 18.2531 9.81021 16.945 9.15618L16.4545 8.87004V8.29775H26.0606V8.87004L24.5482 9.03354C23.1992 9.19705 22.6269 9.6467 22.6269 10.4642C22.6269 11.4862 24.0167 14.2249 25.5701 17.3316C26.5511 19.3755 27.9818 22.3595 28.8403 23.9537C30.0666 21.2558 31.1294 18.9258 32.1104 16.7593C29.4125 10.9548 28.8403 9.56495 27.7775 9.07442L27.2869 8.87004V8.29775H37.8741V8.87004L37.1383 9.1153C36.2799 9.36056 35.4624 10.7095 33.8682 13.9797C34.236 14.6337 34.6039 15.3286 34.9718 16.0235C36.3208 18.5171 38.3238 22.196 39.4683 24.0764C42.1662 17.536 43.3517 13.5709 43.3108 11.6088C43.2699 10.0555 42.4932 9.36056 41.2669 9.15618L39.1413 8.87004V8.29775H48.3387V8.87004L47.889 9.1153C46.4583 9.81021 45.1094 13.2439 37.9559 28.7772H37.4245C36.4843 26.4064 34.4404 21.6646 32.928 18.4762ZM55.7138 8.78828C52.5663 8.78828 50.9312 10.873 50.7268 15.6556L59.8015 15.1242C60.6191 15.0425 60.8235 14.5928 60.8235 13.9388C60.8235 10.9548 58.6161 8.78828 55.7138 8.78828ZM57.308 7.88898C62.4994 7.88898 64.9929 10.546 64.8703 15.2878L61.0279 16.1053L50.7268 15.9418C50.7268 16.1053 50.7268 16.3097 50.7268 16.5141C50.7268 22.7274 53.5473 25.0574 57.7577 25.0574C61.1914 25.0574 63.2761 23.6676 64.625 19.866L65.0338 20.193C63.7257 25.18 61.3957 28.2867 55.9182 28.2867C50.2363 28.2867 46.3938 24.7304 46.3938 17.9448C46.3938 11.8949 50.4407 7.88898 57.308 7.88898ZM81.5785 28.1232C79.2485 28.1232 78.2675 26.4881 78.1857 23.7902L77.9405 23.7493C76.9594 26.1611 74.2615 28.2867 71.441 28.2867C67.9256 28.2867 65.9635 26.0793 65.9635 23.7085C65.9635 21.3785 69.7242 19.7434 78.1449 17.9856V17.2907C78.1449 10.7095 77.4908 9.27881 74.425 9.27881C71.8498 9.27881 70.5826 10.4642 70.5826 12.9578C70.5826 13.8162 70.7052 15.2469 70.8278 16.3914L66.7401 17.0046C66.4949 10.9139 72.1359 7.88898 76.428 7.88898C80.2705 7.88898 82.2735 9.56495 82.2735 13.2848C82.2326 14.7155 82.1508 17.209 82.1508 18.9667C82.1508 24.526 82.3552 25.3435 83.2954 25.3435C84.3173 25.3435 84.8078 24.2807 85.1757 19.6616L85.6663 19.7025C85.2575 25.6706 83.9903 28.1232 81.5785 28.1232ZM74.0571 25.1392C75.7331 25.1392 77.6952 24.3625 77.9405 22.6865C78.104 21.8281 78.1449 21.1332 78.1449 18.9667C75.447 19.3346 73.0352 19.7842 71.2366 20.3565C70.2556 20.6427 69.765 21.0514 69.765 21.9916C69.765 23.9537 71.1957 25.1392 74.0571 25.1392ZM88.3926 19.1711C88.3926 11.4453 88.3517 11.2409 87.0845 10.9956L85.3268 10.6686V10.0964C87.7794 9.56495 90.1912 8.78828 91.7854 8.05249L92.1942 8.17512C92.1942 10.4234 92.1533 12.876 92.1533 15.3286L92.3985 15.3695C93.3796 11.2 95.6278 7.84811 99.4294 7.76635C99.5112 9.15618 99.5929 11.1592 99.5929 12.6307C98.9798 12.549 98.0396 12.4672 97.3447 12.4672C94.6468 12.4672 92.4394 13.8571 92.4394 17.2907C92.4394 26.2837 92.6029 26.529 93.6249 26.6925L97.1403 27.183V27.8779H85.3268V27.183L87.0028 26.856C88.3108 26.5699 88.3926 26.1611 88.3926 19.1711ZM113.363 15.7374C113.363 24.3625 113.486 25.9976 113.731 27.1421C124.359 26.202 126.117 23.872 126.117 16.4323C126.117 8.54302 122.929 4.16916 115.448 4.12828C114.876 4.12828 114.263 4.16916 113.731 4.21003C113.445 5.43635 113.363 7.60284 113.363 15.7374ZM118.514 3.35161C126.649 3.35161 130.532 7.6846 130.532 14.552C130.532 22.3186 125.627 27.8779 117.696 27.8779H105.392V27.183L107.354 26.7742C109.276 26.4064 109.276 25.9976 109.276 16.2688C109.276 4.86407 109.194 4.65969 107.518 4.37354L105.351 4.04653V3.35161H118.514ZM135.476 5.15021C134.004 5.15021 133.023 4.4553 133.023 3.14723C133.023 1.47126 134.372 0.694598 136.457 0.694598C137.928 0.694598 138.909 1.34863 138.909 2.6567C138.909 4.33267 137.56 5.15021 135.476 5.15021ZM138.378 16.3097C138.378 26.3246 138.501 26.529 139.645 26.8151L141.648 27.183L141.607 27.8779H131.265V27.183L132.655 26.8969C134.331 26.529 134.331 26.2837 134.331 19.0893C134.331 11.4453 134.29 11.2409 132.982 10.9956L131.265 10.6686V10.0964C134.045 9.48319 136.212 8.82916 138.051 8.01161L138.46 8.17512C138.419 11.1183 138.378 13.53 138.378 16.3097ZM150.654 7.76635C153.434 7.76635 155.273 8.33863 156.459 8.7474C156.336 10.6278 156.173 13.1621 156.173 15.4921H155.519L154.987 13.2848C154.211 10.2599 151.921 8.7474 149.019 8.7474C146.853 8.7474 145.381 9.93284 145.381 11.6497C145.381 13.8571 147.098 14.9607 150.777 15.9827C154.946 17.1681 157.358 18.7623 157.358 21.9507C157.358 25.2209 154.211 28.2867 148.406 28.2867C145.545 28.2867 143.419 27.4283 142.152 26.6516C142.274 24.9348 142.397 22.8092 142.438 20.2339H143.092L143.542 22.3186C144.359 25.5888 146.812 26.6516 151.349 26.6516C154.415 26.6516 155.233 25.7114 155.233 24.1172C155.233 21.8281 153.025 20.8471 148.529 19.5799C144.318 18.3535 142.479 16.7185 142.479 14.0614C142.479 10.6278 146.117 7.76635 150.654 7.76635ZM171.114 27.1421C174.139 27.1421 175.733 24.8121 175.733 18.5579C175.733 12.7534 174.384 10.7095 170.624 10.7095C167.967 10.7095 165.228 12.0585 165.228 15.6965C165.228 20.2339 165.228 23.5858 165.269 26.0793C167.885 26.9378 169.397 27.1421 171.114 27.1421ZM180.066 16.5549C180.066 23.7902 176.06 28.2458 169.52 28.2458C168.457 28.2458 166.904 28.0414 165.31 27.5918C165.473 33.0693 165.882 33.3964 166.986 33.519L170.951 34.0095L170.91 34.6635H158.074V34.0095L160.037 33.5599C161.222 33.192 161.14 32.1292 161.14 21.6237C161.14 11.4862 161.181 11.2409 159.75 10.9956L158.074 10.6686V10.0964C160.65 9.52407 162.775 8.91091 164.615 8.05249L165.024 8.17512L164.942 13.53L165.187 13.5709C165.923 10.8321 169.07 7.88898 173.322 7.88898C177.9 7.88898 180.066 10.8321 180.066 16.5549ZM183.545 17.6178C183.545 3.96477 183.504 3.67863 182.196 3.39249L180.438 3.06547V2.45232C184.608 1.71653 186.079 1.226 187.183 -0.000315321L187.674 0.0814404C187.633 4.37354 187.633 8.54302 187.633 12.876C187.633 26.202 187.633 26.4064 188.818 26.7334L190.821 27.183V27.8779H180.398V27.183L181.992 26.9378C183.586 26.6107 183.545 26.1202 183.545 17.6178ZM206.615 28.1232C204.285 28.1232 203.304 26.4881 203.222 23.7902L202.977 23.7493C201.996 26.1611 199.298 28.2867 196.477 28.2867C192.962 28.2867 191 26.0793 191 23.7085C191 21.3785 194.76 19.7434 203.181 17.9856V17.2907C203.181 10.7095 202.527 9.27881 199.461 9.27881C196.886 9.27881 195.619 10.4642 195.619 12.9578C195.619 13.8162 195.741 15.2469 195.864 16.3914L191.776 17.0046C191.531 10.9139 197.172 7.88898 201.464 7.88898C205.307 7.88898 207.31 9.56495 207.31 13.2848C207.269 14.7155 207.187 17.209 207.187 18.9667C207.187 24.526 207.391 25.3435 208.332 25.3435C209.354 25.3435 209.844 24.2807 210.212 19.6616L210.703 19.7025C210.294 25.6706 209.027 28.1232 206.615 28.1232ZM199.093 25.1392C200.769 25.1392 202.731 24.3625 202.977 22.6865C203.14 21.8281 203.181 21.1332 203.181 18.9667C200.483 19.3346 198.071 19.7842 196.273 20.3565C195.292 20.6427 194.801 21.0514 194.801 21.9916C194.801 23.9537 196.232 25.1392 199.093 25.1392ZM211.943 35.0723C210.717 35.0723 209.491 34.9906 208.714 34.8271C208.877 33.1511 209 31.6795 209.123 30.1671C210.717 30.7393 212.27 31.0664 213.783 31.0664C215.99 31.0664 218.034 30.3714 219.424 28.1641C218.238 25.6706 216.399 22.0734 214.682 18.7623C210.553 10.8321 210.186 9.85109 209.204 9.27881L208.591 8.87004V8.29775H218.933V8.87004L216.93 9.07442C215.867 9.19705 215.418 9.44232 215.418 10.0555C215.418 10.873 216.603 13.4483 218.075 16.4732C219.219 18.8032 220.568 21.4193 221.59 23.3406C224.329 17.1272 225.474 13.8979 225.474 12.4264C225.474 10.5051 224.738 9.36056 223.184 9.1153L221.1 8.87004V8.29775H230.665V8.87004L230.093 9.15618C228.744 9.97372 227.272 12.876 219.996 28.2049C217.707 33.0285 215.254 35.0723 211.943 35.0723Z" fill="black"/>
</svg>
