<svg width="118" height="18" viewBox="0 0 118 18" fill="none" xmlns="http://www.w3.org/2000/svg">
<path d="M4.5 1.44012C6.02 1.44012 7 1.80012 7.6 2.00012C7.52 3.28012 7.44 4.62012 7.42 6.04012H7.18L6.96 4.54012C6.64 2.50012 5.36 1.86012 3.78 1.86012C2.32 1.86012 1.44 2.60012 1.44 3.86012C1.44 5.20012 2.1 5.98012 4.42 6.84012C7.12 7.84012 8.18 8.66012 8.18 10.2801C8.18 12.1001 6.44 13.8201 3.4 13.8201C1.92 13.8201 0.66 13.2601 1.49012e-08 12.8201C0.04 11.8001 0.14 10.5201 0.14 9.04012H0.38L0.56 10.3801C0.88 12.4001 2.02 13.0601 4.6 13.0601C6.7 13.0601 7.3 12.4001 7.3 11.1401C7.3 9.84012 6.6 9.20012 3.62 8.10012C1.38 7.30012 0.34 6.32012 0.34 4.80012C0.34 2.98012 2.08 1.44012 4.5 1.44012ZM16.4141 4.40012C15.8741 4.40012 15.5741 4.56012 15.5741 4.82012C15.5741 5.20012 15.9941 5.96012 16.5341 6.94012C16.8741 6.06012 17.2141 5.30012 17.2141 4.86012C17.2141 4.54012 16.9541 4.40012 16.4141 4.40012ZM16.3941 9.02012C16.2941 8.80012 16.1941 8.60012 16.1141 8.42012C15.3941 10.0601 14.6541 11.8601 13.6741 14.0201H13.4541C12.9741 12.8201 12.0741 10.8201 11.2941 9.22012C9.43406 5.38012 9.33406 4.82012 8.65406 4.54012L8.37406 4.42012V4.20012H12.9141V4.42012L11.9741 4.50012C11.2141 4.58012 10.9141 4.76012 10.9141 5.16012C10.9141 5.64012 11.6541 7.06012 12.4341 8.66012C13.0141 9.84012 13.7341 11.3201 14.2141 12.1801C14.9341 10.5801 15.5341 9.30012 15.9941 8.20012C14.5941 5.18012 14.4141 4.72012 13.8741 4.50012L13.5941 4.42012V4.20012H18.7941V4.42012L18.3941 4.52012C17.9341 4.66012 17.5941 5.24012 16.6541 7.18012C16.8141 7.48012 16.9941 7.80012 17.1541 8.12012C17.8341 9.44012 18.8141 11.2601 19.3541 12.2001C21.0541 8.28012 21.7141 6.38012 21.7141 5.52012C21.7141 4.90012 21.3141 4.64012 20.6941 4.56012L19.4741 4.42012V4.20012H23.8941V4.42012L23.6541 4.50012C22.8941 4.78012 22.4141 6.10012 18.7941 14.0201H18.5941C18.1341 12.8201 17.1541 10.6201 16.3941 9.02012ZM28.202 4.34012C26.402 4.34012 25.342 5.54012 25.202 7.72012L30.462 7.52012C30.882 7.48012 30.982 7.24012 30.982 6.90012C30.982 5.40012 29.802 4.34012 28.202 4.34012ZM28.822 4.00012C31.182 4.00012 32.542 5.26012 32.462 7.58012L31.082 7.92012L25.182 7.86012C25.182 7.98012 25.182 8.10012 25.182 8.24012C25.182 11.3001 26.682 12.6601 28.922 12.6601C30.682 12.6601 31.722 11.9201 32.382 9.94012L32.562 10.0401C31.922 12.6001 30.642 13.8201 28.262 13.8201C25.482 13.8201 23.702 11.9801 23.702 8.76012C23.702 5.98012 25.542 4.00012 28.822 4.00012ZM41.2988 13.7201C40.3788 13.7201 39.8988 13.0801 39.8788 11.7201H39.7788C39.2988 12.8601 37.9788 13.8201 36.5588 13.8201C34.7988 13.8201 33.7988 12.8201 33.7988 11.6801C33.7988 10.5801 35.4588 9.90012 39.8988 9.00012C39.8988 8.78012 39.8988 8.52012 39.8988 8.22012C39.8988 5.36012 39.5388 4.56012 37.8988 4.56012C36.3788 4.56012 35.5988 5.22012 35.5988 6.68012C35.5988 7.04012 35.6588 7.60012 35.7188 8.10012L34.2188 8.34012C34.1588 5.40012 36.5588 4.00012 38.5588 4.00012C40.3988 4.00012 41.2788 4.80012 41.2788 6.70012C41.2788 7.32012 41.2188 8.44012 41.2188 9.30012C41.2188 12.2801 41.3388 12.7201 41.8588 12.7201C42.3988 12.7201 42.6988 12.2001 42.8988 9.86012H43.0988C42.8788 12.6601 42.4188 13.7201 41.2988 13.7201ZM37.4788 12.6401C38.3988 12.6401 39.6388 12.2001 39.7988 11.1801C39.8788 10.7601 39.8988 10.4801 39.8988 9.46012C38.2788 9.70012 36.8588 9.96012 35.8587 10.2801C35.3588 10.4201 35.1188 10.6601 35.1188 11.0601C35.1188 12.0401 35.9188 12.6401 37.4788 12.6401ZM45.2578 9.36012C45.2578 5.52012 45.1978 5.42012 44.5378 5.34012L43.5978 5.26012V5.04012C44.7578 4.78012 45.6978 4.44012 46.3978 4.10012L46.5578 4.16012C46.5578 5.14012 46.5178 6.28012 46.4978 7.40012L46.6178 7.42012C47.0178 5.58012 48.3178 4.00012 50.0978 3.96012C50.1178 4.46012 50.1578 5.16012 50.1578 5.66012C49.9378 5.66012 49.6378 5.62012 49.3778 5.62012C47.9978 5.62012 46.6178 6.44012 46.6178 8.34012C46.6178 12.9201 46.6978 13.0801 47.1978 13.1401L49.0778 13.3801V13.6201H43.5978V13.3801L44.5578 13.2201C45.2178 13.1001 45.2578 12.9201 45.2578 9.36012ZM57.8033 7.62012C57.8033 11.9201 57.8833 12.7401 58.0233 13.3401C63.9833 12.8401 65.0233 11.7201 65.0233 7.86012C65.0233 4.08012 63.2433 1.92012 59.1233 1.92012C58.7433 1.92012 58.3633 1.94012 58.0433 1.96012C57.8633 2.58012 57.8033 3.78012 57.8033 7.62012ZM60.4233 1.62012C64.5033 1.62012 66.5633 3.74012 66.5633 7.14012C66.5633 10.8801 64.0633 13.6201 60.2233 13.6201H54.3033V13.3801L55.3633 13.2001C56.4433 13.0001 56.4433 12.8601 56.4433 7.84012C56.4433 2.26012 56.4233 2.14012 55.4833 2.02012L54.3033 1.86012V1.62012H60.4233ZM69.6208 2.24012C69.0208 2.24012 68.6408 1.94012 68.6408 1.38012C68.6408 0.700117 69.1408 0.380116 69.9008 0.380116C70.5008 0.380116 70.8808 0.660117 70.8808 1.22012C70.8808 1.90012 70.3808 2.24012 69.6208 2.24012ZM70.6208 8.04012C70.6208 12.9601 70.7008 13.0801 71.2408 13.1801L72.3208 13.3801V13.6201H67.6008V13.3801L68.3408 13.2601C69.2208 13.1201 69.2408 13.0201 69.2408 9.28012C69.2408 5.52012 69.2008 5.42012 68.5008 5.34012L67.6008 5.26012V5.04012C68.8408 4.74012 69.7208 4.44012 70.4808 4.08012L70.6408 4.14012C70.6408 5.60012 70.6208 6.70012 70.6208 8.04012ZM77.1942 3.96012C78.5542 3.96012 79.3942 4.26012 79.9342 4.46012C79.8542 5.42012 79.7942 6.62012 79.7942 7.68012H79.5542L79.3542 6.46012C79.0742 4.90012 77.9942 4.34012 76.5542 4.34012C75.3542 4.34012 74.5542 5.00012 74.5542 5.94012C74.5542 7.14012 75.5142 7.64012 77.1142 8.12012C78.9542 8.70012 80.3742 9.36012 80.3742 10.9601C80.3742 12.4001 78.9142 13.8201 76.2542 13.8201C74.9342 13.8201 73.8742 13.3801 73.2942 13.0201C73.3542 12.2401 73.3942 11.2201 73.4142 9.98012H73.6542L73.8142 11.0601C74.0942 12.6601 75.1742 13.1801 77.2742 13.1801C79.0342 13.1801 79.5542 12.6401 79.5542 11.7201C79.5542 10.4601 78.2942 10.0001 76.4142 9.42012C74.6142 8.84012 73.5342 8.16012 73.5342 6.74012C73.5342 5.24012 75.0742 3.96012 77.1942 3.96012ZM87.788 13.2801C89.588 13.2801 90.508 11.9401 90.508 8.90012C90.508 6.12012 89.728 5.04012 87.668 5.04012C86.128 5.04012 84.528 5.84012 84.528 7.88012C84.528 10.0201 84.528 11.6201 84.548 12.8201C86.068 13.2201 86.908 13.2801 87.788 13.2801ZM92.008 8.16012C92.008 11.5601 90.068 13.8001 86.928 13.8001C86.308 13.8001 85.428 13.6801 84.568 13.3601C84.628 16.2001 84.788 16.3801 85.248 16.4401L87.528 16.7201L87.508 16.9601H81.468V16.7201L82.588 16.5001C83.148 16.3601 83.148 15.9001 83.148 10.8201C83.148 5.50012 83.128 5.42012 82.368 5.34012L81.488 5.26012V5.04012C82.708 4.76012 83.468 4.52012 84.328 4.10012L84.468 4.16012L84.428 6.78012H84.528C84.888 5.38012 86.388 4.00012 88.548 4.00012C90.868 4.00012 92.008 5.48012 92.008 8.16012ZM94.5138 8.96012C94.5138 1.62012 94.4738 1.50012 93.7738 1.38012L92.8538 1.26012V1.04012C94.7338 0.740116 95.2938 0.520117 95.7138 0.00011611L95.9138 0.020117C95.8938 2.20012 95.8938 4.30012 95.8938 6.48012C95.8938 12.9201 95.8938 13.0001 96.4538 13.1601L97.5938 13.3801V13.6201H92.8338V13.3801L93.6538 13.2601C94.5138 13.1201 94.5138 13.0001 94.5138 8.96012ZM105.869 13.7201C104.949 13.7201 104.469 13.0801 104.449 11.7201H104.349C103.869 12.8601 102.549 13.8201 101.129 13.8201C99.3691 13.8201 98.3691 12.8201 98.3691 11.6801C98.3691 10.5801 100.029 9.90012 104.469 9.00012C104.469 8.78012 104.469 8.52012 104.469 8.22012C104.469 5.36012 104.109 4.56012 102.469 4.56012C100.949 4.56012 100.169 5.22012 100.169 6.68012C100.169 7.04012 100.229 7.60012 100.289 8.10012L98.7891 8.34012C98.7291 5.40012 101.129 4.00012 103.129 4.00012C104.969 4.00012 105.849 4.80012 105.849 6.70012C105.849 7.32012 105.789 8.44012 105.789 9.30012C105.789 12.2801 105.909 12.7201 106.429 12.7201C106.969 12.7201 107.269 12.2001 107.469 9.86012H107.669C107.449 12.6601 106.989 13.7201 105.869 13.7201ZM102.049 12.6401C102.969 12.6401 104.209 12.2001 104.369 11.1801C104.449 10.7601 104.469 10.4801 104.469 9.46012C102.849 9.70012 101.429 9.96012 100.429 10.2801C99.9291 10.4201 99.6891 10.6601 99.6891 11.0601C99.6891 12.0401 100.489 12.6401 102.049 12.6401ZM108.8 17.1401C108.2 17.1401 107.66 17.1001 107.36 17.0401C107.42 16.4601 107.46 15.9401 107.5 15.4201C108.06 15.5801 108.64 15.6801 109.26 15.6801C110.54 15.6801 111.72 15.2001 112.52 13.8001C111.98 12.5801 111.12 10.8001 110.32 9.20012C108.3 5.20012 108.2 4.82012 107.64 4.58012L107.32 4.42012V4.20012H112.14V4.42012L110.94 4.52012C110.32 4.58012 110.08 4.70012 110.08 5.00012C110.08 5.44012 110.7 6.82012 111.48 8.40012C112.1 9.66012 112.78 11.0601 113.32 12.0201C115.02 8.20012 115.68 6.44012 115.68 5.76012C115.68 5.02012 115.3 4.64012 114.6 4.56012L113.32 4.42012V4.20012H117.92V4.42012L117.58 4.54012C116.9 4.86012 116.3 6.54012 112.76 13.8401C111.58 16.2201 110.26 17.1401 108.8 17.1401Z" fill="black"/>
</svg>
