<svg width="1021" height="105" viewBox="0 0 1021 105" fill="none" xmlns="http://www.w3.org/2000/svg">
<path d="M888.883 102.208C895.591 68.7966 901.642 35.2534 907.036 1.8418H975.569C980.962 35.2534 987.013 68.7966 993.722 102.208H953.207C952.154 96.6834 951.234 90.8956 950.313 85.1077H931.502C930.582 90.8956 929.529 96.6834 928.477 102.208H888.883ZM947.419 65.3765C945.051 48.8022 943.21 32.3595 942.157 18.153H940.447C939.132 32.3595 937.159 48.8022 934.659 65.3765H947.419Z" fill="#F7E591"/>
<path d="M786.328 102.208C786.723 85.3708 786.986 68.7966 786.986 52.0908C786.986 35.2534 786.723 18.6791 786.328 1.8418H845.127C876.566 1.8418 884.984 10.6551 884.984 29.4656C884.984 50.1176 874.461 56.4316 849.731 56.4316V58.7994C877.355 58.7994 884.984 65.3765 884.984 81.0299C884.984 88.6594 886.168 94.5788 888.931 102.208H846.18C845.259 94.8418 844.733 88.2648 844.733 79.3199C844.733 72.2167 844.206 69.5858 836.314 69.5858H825.922V102.208H786.328ZM844.601 47.6183V38.6735C844.601 32.3595 841.444 28.1502 833.815 28.1502H825.922V37.095C825.922 43.5405 829.079 47.6183 836.709 47.6183H844.601Z" fill="#F7E591"/>
<path d="M733.057 104.05C698.198 104.05 687.148 89.8433 687.148 60.5094V1.8418H725.953V63.5349C725.953 70.112 728.321 74.5844 734.767 74.5844H740.16V1.8418H778.965V60.5094C778.965 89.8433 767.915 104.05 733.057 104.05Z" fill="#F7E591"/>
<path d="M632.785 104.05C598.058 104.05 583.852 89.1853 583.852 52.0906C583.852 14.8642 598.058 0 632.785 0C665.144 0 679.746 13.0226 681.587 45.1188L641.598 48.802C641.598 33.4116 639.099 26.8345 630.154 26.8345H623.972V60.6408C623.972 73.0057 626.997 77.3466 635.416 77.3466H641.598V61.5616H681.324C678.956 91.8162 664.224 104.05 632.785 104.05Z" fill="#F7E591"/>
<path d="M305.039 102.208C311.748 68.7966 317.799 35.2534 323.192 1.8418H391.725C397.118 35.2534 403.169 68.7966 409.878 102.208H369.363C368.311 96.6834 367.39 90.8956 366.469 85.1077H347.659C346.738 90.8956 345.685 96.6834 344.633 102.208H305.039ZM363.575 65.3765C361.207 48.8022 359.366 32.3595 358.313 18.153H356.603C355.288 32.3595 353.315 48.8022 350.816 65.3765H363.575Z" fill="#F7E591"/>
<path d="M202.484 102.208C202.879 85.3708 203.142 68.7966 203.142 52.0908C203.142 35.2534 202.879 18.6791 202.484 1.8418H261.284C292.722 1.8418 301.141 10.6551 301.141 29.4656C301.141 50.1176 290.617 56.4316 265.888 56.4316V58.7994C293.511 58.7994 301.141 65.3765 301.141 81.0299C301.141 88.6594 302.325 94.5788 305.087 102.208H262.336C261.415 94.8418 260.889 88.2648 260.889 79.3199C260.889 72.2167 260.363 69.5858 252.47 69.5858H242.078V102.208H202.484ZM260.757 47.6183V38.6735C260.757 32.3595 257.6 28.1502 249.971 28.1502H242.078V37.095C242.078 43.5405 245.235 47.6183 252.865 47.6183H260.757Z" fill="#F7E591"/>
<path d="M149.213 104.05C114.354 104.05 103.305 89.8433 103.305 60.5094V1.8418H142.11V63.5349C142.11 70.112 144.477 74.5844 150.923 74.5844H156.316V1.8418H195.121V60.5094C195.121 89.8433 184.071 104.05 149.213 104.05Z" fill="#F7E591"/>
<path d="M48.9336 104.05C14.2065 104.05 0 89.1853 0 52.0906C0 14.8642 14.2065 0 48.9336 0C81.2928 0 95.894 13.0226 97.7356 45.1188L57.7469 48.802C57.7469 33.4116 55.2476 26.8345 46.3027 26.8345H40.1203V60.6408C40.1203 73.0057 43.1457 77.3466 51.5644 77.3466H57.7469V61.5616H97.4725C95.1047 91.8162 80.372 104.05 48.9336 104.05Z" fill="#F7E591"/>
<g clip-path="url(#clip0_4301_1113)">
<path d="M526.806 82.8281L516.079 72.2288C504.332 61.1214 486.845 60.2322 475.098 71.3396L472.219 74.0636L474.938 71.1844C486.046 59.4371 486.046 41.0612 474.938 29.3139L472.219 26.4348L475.098 29.1587C486.845 40.2661 505.221 40.2661 516.969 29.1587L519.852 26.4348L517.129 29.3139C506.021 41.0612 506.91 58.548 518.018 70.2952L528.617 81.0216C535.396 73.3108 535.1 61.5542 527.737 54.1916C526.053 52.5074 524.143 51.1948 522.101 50.2492C524.143 49.3036 526.053 47.991 527.737 46.3068C535.401 38.6431 535.401 26.209 527.737 18.5452C520.069 10.8768 507.639 10.8815 499.976 18.5452C498.292 20.2295 496.979 22.1395 496.033 24.1813C495.088 22.1395 493.775 20.2248 492.091 18.5452C484.423 10.8768 471.993 10.8768 464.329 18.5452C456.661 26.2137 456.666 38.6431 464.329 46.3068C466.009 47.9863 467.919 49.3036 469.965 50.2492C467.924 51.1901 466.009 52.5074 464.329 54.1916C456.661 61.86 456.661 74.2894 464.329 81.9531C471.993 89.6168 484.427 89.6168 492.091 81.9531C493.77 80.2736 495.088 78.3588 496.033 76.317C496.974 78.3588 498.292 80.2689 499.976 81.9531C507.338 89.3157 519.09 89.6121 526.806 82.8328V82.8281Z" fill="#F7E591"/>
</g>
<path d="M1001.76 21.3262V9.64735H1003.93V21.3262H1001.76ZM1002.86 16.8882V14.8695H1006.5C1007.08 14.8695 1007.53 14.7304 1007.84 14.4524C1008.15 14.1632 1008.3 13.7683 1008.3 13.2678H1010.56C1010.56 14.3689 1010.21 15.2476 1009.52 15.9039C1008.84 16.5601 1007.91 16.8882 1006.72 16.8882H1002.86ZM1008.3 13.2678C1008.3 12.7673 1008.15 12.378 1007.84 12.0999C1007.53 11.8107 1007.08 11.6661 1006.5 11.6661H1002.86V9.64735H1006.72C1007.91 9.64735 1008.84 9.97547 1009.52 10.6317C1010.21 11.2879 1010.56 12.1666 1010.56 13.2678H1008.3ZM1008.14 21.3262L1005.57 16.2542L1007.75 15.7203L1010.56 21.1927V21.3262H1008.14Z" fill="#F7E591"/>
<circle cx="1004.64" cy="16.4337" r="15.1237" stroke="#F7E591" stroke-width="2.30936"/>
<defs>
<clipPath id="clip0_4301_1113">
<rect width="74.9057" height="74.9057" fill="white" transform="translate(458.578 12.791)"/>
</clipPath>
</defs>
</svg>
